<svg width="243" height="163" viewBox="0 0 243 163" fill="none" xmlns="http://www.w3.org/2000/svg">
<g filter="url(#filter0_d_403_6374)">
<rect x="39" y="20" width="164.92" height="85.68" rx="18.36" fill="#F5F5F4" shape-rendering="crispEdges"/>
<rect x="39.3825" y="20.3825" width="164.155" height="84.915" rx="17.9775" stroke="#7F56D9" stroke-width="0.765" shape-rendering="crispEdges"/>
<g filter="url(#filter1_d_403_6374)">
<rect x="57.36" y="38.36" width="48.96" height="48.96" rx="12.24" fill="#184500"/>
<g clip-path="url(#clip0_403_6374)">
<path d="M94.2713 68.2586H93.1876V67.3024H94.2713C95.0363 67.3024 95.6738 66.6649 95.6738 65.8999V59.2061C95.6738 57.9949 94.6538 56.9749 93.4426 56.9749H86.4301C85.2188 56.9749 84.1988 57.9949 84.1988 59.2061V65.8999C84.1988 66.6649 84.8363 67.3024 85.6013 67.3024H86.6851V68.2586H85.6013C84.2626 68.2586 83.2426 67.1749 83.2426 65.8999V59.2061C83.2426 57.4211 84.6451 56.0186 86.4301 56.0186H93.5063C95.2913 56.0186 96.6938 57.4211 96.6938 59.2061V65.8999C96.6938 67.2386 95.6101 68.2586 94.2713 68.2586ZM89.9363 54.9986C88.0238 54.9986 86.4301 53.4049 86.4301 51.4924C86.4301 49.5799 88.0238 47.9861 89.9363 47.9861C91.8488 47.9861 93.4426 49.5799 93.4426 51.4924C93.4426 53.4049 91.9126 54.9986 89.9363 54.9986ZM89.9363 49.0061C88.5338 49.0061 87.3863 50.1536 87.3863 51.5561C87.3863 52.9586 88.5338 54.1061 89.9363 54.1061C91.3388 54.1061 92.4863 52.9586 92.4863 51.5561C92.4863 50.1536 91.3388 49.0061 89.9363 49.0061Z" fill="#F5F5F4"/>
<path d="M91.5937 77.6937C90.9562 77.6937 90.3825 77.3749 90 76.9287C89.6175 77.3749 89.0437 77.6937 88.4062 77.6937C87.2587 77.6937 86.3025 76.7374 86.3025 75.5899V60.0349H87.2587V75.5899C87.2587 76.2274 87.7687 76.7374 88.4062 76.7374C89.0437 76.7374 89.49 76.1637 89.49 75.5899V67.8124H90.4462V75.5899C90.4462 76.2274 90.9562 76.7374 91.5937 76.7374C92.2312 76.7374 92.7412 76.2274 92.7412 75.5899V60.0349H93.6975V75.5899C93.6975 76.7374 92.7412 77.6937 91.5937 77.6937Z" fill="#F5F5F4"/>
<path d="M84.7088 71.0636H67.05V51.0461H85.0275V52.0024H68.0063V70.1074H84.7088V71.0636Z" fill="#F5F5F4"/>
<path d="M81.585 59.9712H70.62V60.9274H81.585V59.9712Z" fill="#F5F5F4"/>
<path d="M81.585 63.2225H70.62V64.1787H81.585V63.2225Z" fill="#F5F5F4"/>
<path d="M81.585 66.5374H70.62V67.4937H81.585V66.5374Z" fill="#F5F5F4"/>
</g>
</g>
<path opacity="0.5" d="M119.306 42.6228V41.451H127.488V42.6228H124.058V52.36H122.737V42.6228H119.306ZM133.4 49.0149V44.1782H134.657V52.36H133.4V50.9751H133.314C133.123 51.3906 132.824 51.7439 132.419 52.0351C132.015 52.3228 131.503 52.4666 130.885 52.4666C130.374 52.4666 129.919 52.3547 129.522 52.131C129.124 51.9037 128.812 51.5628 128.584 51.1083C128.357 50.6502 128.243 50.0731 128.243 49.3771V44.1782H129.5V49.2919C129.5 49.8885 129.667 50.3643 130.001 50.7194C130.339 51.0745 130.768 51.2521 131.29 51.2521C131.603 51.2521 131.921 51.1722 132.244 51.0124C132.57 50.8526 132.844 50.6076 133.064 50.2773C133.288 49.947 133.4 49.5262 133.4 49.0149ZM140.517 44.1782V45.2436H136.277V44.1782H140.517ZM137.513 42.218H138.77V50.0163C138.77 50.3714 138.822 50.6377 138.925 50.8153C139.031 50.9893 139.166 51.1065 139.33 51.1669C139.496 51.2237 139.672 51.2521 139.857 51.2521C139.995 51.2521 140.109 51.245 140.198 51.2308C140.287 51.213 140.358 51.1988 140.411 51.1882L140.667 52.3174C140.581 52.3494 140.462 52.3814 140.31 52.4133C140.157 52.4488 139.963 52.4666 139.729 52.4666C139.374 52.4666 139.026 52.3902 138.685 52.2375C138.348 52.0848 138.067 51.8522 137.843 51.5397C137.623 51.2272 137.513 50.8331 137.513 50.3572V42.218ZM145.644 52.5305C144.906 52.5305 144.258 52.3547 143.7 52.0032C143.146 51.6516 142.713 51.1598 142.4 50.5277C142.091 49.8956 141.937 49.1569 141.937 48.3118C141.937 47.4595 142.091 46.7155 142.4 46.0799C142.713 45.4442 143.146 44.9506 143.7 44.599C144.258 44.2475 144.906 44.0717 145.644 44.0717C146.383 44.0717 147.029 44.2475 147.583 44.599C148.141 44.9506 148.574 45.4442 148.883 46.0799C149.195 46.7155 149.352 47.4595 149.352 48.3118C149.352 49.1569 149.195 49.8956 148.883 50.5277C148.574 51.1598 148.141 51.6516 147.583 52.0032C147.029 52.3547 146.383 52.5305 145.644 52.5305ZM145.644 51.4012C146.205 51.4012 146.667 51.2574 147.029 50.9698C147.392 50.6821 147.66 50.3039 147.834 49.8352C148.008 49.3664 148.095 48.8586 148.095 48.3118C148.095 47.7649 148.008 47.2553 147.834 46.783C147.66 46.3107 147.392 45.9289 147.029 45.6377C146.667 45.3466 146.205 45.201 145.644 45.201C145.083 45.201 144.622 45.3466 144.259 45.6377C143.897 45.9289 143.629 46.3107 143.455 46.783C143.281 47.2553 143.194 47.7649 143.194 48.3118C143.194 48.8586 143.281 49.3664 143.455 49.8352C143.629 50.3039 143.897 50.6821 144.259 50.9698C144.622 51.2574 145.083 51.4012 145.644 51.4012ZM151.271 52.36V44.1782H152.485V45.414H152.57C152.72 45.0092 152.989 44.6807 153.38 44.4286C153.771 44.1765 154.211 44.0504 154.701 44.0504C154.793 44.0504 154.909 44.0522 155.047 44.0557C155.186 44.0593 155.291 44.0646 155.362 44.0717V45.3501C155.319 45.3394 155.221 45.3235 155.069 45.3022C154.919 45.2773 154.761 45.2649 154.595 45.2649C154.197 45.2649 153.842 45.3483 153.529 45.5152C153.22 45.6786 152.975 45.9059 152.794 46.197C152.617 46.4847 152.528 46.8132 152.528 47.1825V52.36H151.271ZM162.647 46.0106L161.518 46.3302C161.447 46.142 161.342 45.9591 161.204 45.7816C161.069 45.6005 160.884 45.4513 160.65 45.3341C160.415 45.2169 160.115 45.1583 159.749 45.1583C159.249 45.1583 158.831 45.2738 158.498 45.5046C158.167 45.7319 158.002 46.0213 158.002 46.3728C158.002 46.6853 158.116 46.9321 158.343 47.1132C158.57 47.2944 158.926 47.4453 159.409 47.566L160.623 47.8643C161.355 48.0419 161.9 48.3135 162.258 48.6793C162.617 49.0415 162.796 49.5085 162.796 50.0802C162.796 50.549 162.661 50.968 162.392 51.3373C162.125 51.7066 161.752 51.9978 161.273 52.2109C160.794 52.424 160.236 52.5305 159.6 52.5305C158.766 52.5305 158.075 52.3494 157.528 51.9872C156.981 51.625 156.635 51.0958 156.49 50.3998L157.683 50.1015C157.796 50.5419 158.011 50.8721 158.327 51.0923C158.647 51.3125 159.064 51.4225 159.579 51.4225C160.165 51.4225 160.63 51.2983 160.975 51.0497C161.323 50.7975 161.497 50.4957 161.497 50.1441C161.497 49.86 161.397 49.6221 161.198 49.4304C160.999 49.235 160.694 49.0894 160.282 48.9936L158.919 48.674C158.169 48.4964 157.619 48.2212 157.267 47.8483C156.919 47.4719 156.745 47.0014 156.745 46.4368C156.745 45.9751 156.875 45.5667 157.134 45.2116C157.397 44.8565 157.754 44.5777 158.205 44.3753C158.659 44.1729 159.174 44.0717 159.749 44.0717C160.559 44.0717 161.195 44.2493 161.656 44.6044C162.122 44.9595 162.452 45.4282 162.647 46.0106Z" fill="#101828"/>
<path d="M120.502 80.36V77.5902L126.973 71.5976C127.524 71.0649 127.986 70.5855 128.358 70.1594C128.737 69.7333 129.024 69.316 129.22 68.9076C129.415 68.4933 129.513 68.0465 129.513 67.5671C129.513 67.0344 129.391 66.5757 129.149 66.191C128.906 65.8004 128.574 65.5015 128.154 65.2943C127.734 65.0813 127.258 64.9747 126.725 64.9747C126.169 64.9747 125.683 65.0872 125.269 65.3121C124.855 65.537 124.535 65.8596 124.31 66.2798C124.085 66.7 123.973 67.2001 123.973 67.7801H120.324C120.324 66.5905 120.593 65.5577 121.132 64.6818C121.67 63.8058 122.425 63.1282 123.396 62.6488C124.366 62.1693 125.485 61.9296 126.752 61.9296C128.054 61.9296 129.187 62.1605 130.152 62.6221C131.122 63.0778 131.877 63.7111 132.416 64.522C132.954 65.3328 133.224 66.262 133.224 67.3096C133.224 67.9962 133.087 68.6738 132.815 69.3426C132.549 70.0114 132.072 70.7542 131.386 71.571C130.699 72.3818 129.732 73.3554 128.483 74.4918L125.828 77.093V77.2173H133.463V80.36H120.502ZM142.889 80.6086C141.635 80.6086 140.516 80.3778 139.533 79.9162C138.557 79.4545 137.782 78.8183 137.207 78.0074C136.633 77.1966 136.334 76.2674 136.311 75.2198H140.039C140.081 75.9241 140.377 76.4952 140.927 76.9332C141.478 77.3712 142.132 77.5902 142.889 77.5902C143.493 77.5902 144.026 77.457 144.487 77.1907C144.955 76.9184 145.319 76.5426 145.579 76.0632C145.846 75.5778 145.979 75.0215 145.979 74.3941C145.979 73.7549 145.843 73.1927 145.57 72.7073C145.304 72.222 144.934 71.8432 144.461 71.571C143.987 71.2987 143.446 71.1596 142.836 71.1537C142.303 71.1537 141.785 71.2632 141.282 71.4822C140.785 71.7012 140.398 72.0001 140.119 72.3789L136.701 71.7663L137.563 62.1782H148.678V65.321H140.732L140.261 69.8753H140.368C140.688 69.4255 141.17 69.0526 141.815 68.7567C142.46 68.4608 143.182 68.3128 143.981 68.3128C145.076 68.3128 146.053 68.5703 146.911 69.0852C147.769 69.6001 148.447 70.3074 148.944 71.207C149.441 72.1007 149.687 73.1305 149.681 74.2965C149.687 75.5216 149.403 76.6106 148.829 77.5635C148.26 78.5105 147.464 79.2562 146.44 79.8007C145.422 80.3393 144.239 80.6086 142.889 80.6086ZM159.491 80.7595C157.964 80.7536 156.65 80.3778 155.549 79.6321C154.454 78.8863 153.611 77.8062 153.019 76.3917C152.433 74.9771 152.143 73.2755 152.149 71.2869C152.149 69.3042 152.442 67.6144 153.028 66.2176C153.62 64.8209 154.463 63.7585 155.558 63.0305C156.659 62.2966 157.97 61.9296 159.491 61.9296C161.012 61.9296 162.32 62.2966 163.415 63.0305C164.516 63.7644 165.362 64.8297 165.954 66.2265C166.546 67.6174 166.839 69.3042 166.833 71.2869C166.833 73.2814 166.537 74.986 165.945 76.4005C165.359 77.8151 164.519 78.8952 163.424 79.6409C162.329 80.3867 161.018 80.7595 159.491 80.7595ZM159.491 77.5724C160.532 77.5724 161.364 77.0486 161.985 76.001C162.607 74.9534 162.915 73.3821 162.909 71.2869C162.909 69.9079 162.767 68.7597 162.483 67.8423C162.204 66.9249 161.808 66.2354 161.293 65.7738C160.784 65.3121 160.183 65.0813 159.491 65.0813C158.455 65.0813 157.626 65.5992 157.005 66.6349C156.384 67.6707 156.07 69.2213 156.064 71.2869C156.064 72.6837 156.203 73.8496 156.481 74.7848C156.765 75.714 157.165 76.4124 157.68 76.8799C158.195 77.3416 158.798 77.5724 159.491 77.5724ZM175.007 77.5902V65.0191H178.185V77.5902H175.007ZM170.311 72.8938V69.7155H182.882V72.8938H170.311Z" fill="#101828"/>
</g>
<defs>
<filter id="filter0_d_403_6374" x="0.75" y="0.110001" width="241.42" height="162.18" filterUnits="userSpaceOnUse" color-interpolation-filters="sRGB">
<feFlood flood-opacity="0" result="BackgroundImageFix"/>
<feColorMatrix in="SourceAlpha" type="matrix" values="0 0 0 0 0 0 0 0 0 0 0 0 0 0 0 0 0 0 127 0" result="hardAlpha"/>
<feOffset dy="18.36"/>
<feGaussianBlur stdDeviation="19.125"/>
<feComposite in2="hardAlpha" operator="out"/>
<feColorMatrix type="matrix" values="0 0 0 0 0 0 0 0 0 0 0 0 0 0 0 0 0 0 0.15 0"/>
<feBlend mode="normal" in2="BackgroundImageFix" result="effect1_dropShadow_403_6374"/>
<feBlend mode="normal" in="SourceGraphic" in2="effect1_dropShadow_403_6374" result="shape"/>
</filter>
<filter id="filter1_d_403_6374" x="19.11" y="18.47" width="125.46" height="125.46" filterUnits="userSpaceOnUse" color-interpolation-filters="sRGB">
<feFlood flood-opacity="0" result="BackgroundImageFix"/>
<feColorMatrix in="SourceAlpha" type="matrix" values="0 0 0 0 0 0 0 0 0 0 0 0 0 0 0 0 0 0 127 0" result="hardAlpha"/>
<feOffset dy="18.36"/>
<feGaussianBlur stdDeviation="19.125"/>
<feComposite in2="hardAlpha" operator="out"/>
<feColorMatrix type="matrix" values="0 0 0 0 0.0509804 0 0 0 0 0.0470588 0 0 0 0 0.219608 0 0 0 0.15 0"/>
<feBlend mode="normal" in2="BackgroundImageFix" result="effect1_dropShadow_403_6374"/>
<feBlend mode="normal" in="SourceGraphic" in2="effect1_dropShadow_403_6374" result="shape"/>
</filter>
<clipPath id="clip0_403_6374">
<rect width="30.6" height="30.6" fill="white" transform="translate(66.54 47.54)"/>
</clipPath>
</defs>
</svg>
